PathFileType	4	(X/Y/Z)	C:/Users/beibeiliu/ov580/test_trc/User2\sequence.13_training_dense_left.trc
DataRate	CameraRate	NumFrames	NumMarkers	Units	OrigDataRate	OrigDataStartFrame	OrigNumFrames
120	120	10	19	mm	120	169	336
Frame#	Time	ThumbCMC			ThumbMCP			ThumbIP			ThumbTip			IndexMCP			IndexPIP			IndexTip			MiddleMCP			MiddlePIP			MiddleTip			RingMCP			RingPIP			RingTip			PinkyMCP			PinkyPIP			PinkyTip			BackHand1			BackHand2			BackHand3	
		X0	Y0	Z0	X1	Y1	Z1	X2	Y2	Z2	X3	Y3	Z3	X4	Y4	Z4	X5	Y5	Z5	X6	Y6	Z6	X7	Y7	Z7	X8	Y8	Z8	X9	Y9	Z9	X10	Y10	Z10	X11	Y11	Z11	X12	Y12	Z12	X13	Y13	Z13	X14	Y14	Z14	X15	Y15	Z15	X16	Y16	Z16	X17	Y17	Z17	X18	Y18	Z18	
168	1.4	-124.368	-1.29058	126.443	-92.6689	-6.2416	124.9	-60.5686	-16.2044	110.346	-38.3439	-28.0109	99.3002	-114.532	-9.52261	46.1571	-94.2507	-18.3804	20.635	-70.4529	-34.5303	10.0921	-133.3	-36.992	33.8357	-114.548	-54.3527	9.95843	-82.4619	-78.7304	5.41787	-127.615	-69.5088	46.5489	-101.129	-81.9449	54.1684	-96.499	-77.7649	86.7159	-136.657	-87.2069	71.068	-107.187	-90.9078	89.3504	-110.45	-71.5251	111.084	-173.339	-41.0849	87.9822	-188.907	-32.6543	115.136	-160.63	-3.8171	101.711	
169	1.40833	-131.471	9.21581	127.829	-98.1668	2.85092	119.499	-65.3881	-0.352157	109.066	-44.0916	-10.113	101.914	-117.966	-7.09084	44.605	-94.4128	-10.3916	21.728	-68.0614	-23.3901	15.3675	-131.795	-41.3871	36.3951	-102.987	-52.5055	12.9013	-73.2275	-69.0663	12.5643	-122.264	-66.2339	52.1306	-91.3786	-79.5363	59.9276	-88.799	-66.9914	97.8679	-122.82	-82.9517	74.5917	-97.5131	-84.1467	96.4312	-105.224	-62.3313	117.158	-169.287	-45.1118	88.5994	-189.512	-35.1676	114.484	-166.4	-8.81419	98.1354	
170	1.41667	-139.401	14.2094	118.297	-105.815	20.9427	118.45	-75.001	20.6969	109.955	-48.4525	7.89776	98.0376	-120.919	-6.386	38.7711	-98.7672	-7.54238	19.6062	-67.4576	-15.6547	15.1443	-126.607	-42.9118	33.9414	-95.4778	-49.0352	14.4001	-63.7587	-62.318	20.234	-109.215	-66.6217	53.4827	-79.9092	-65.055	66.866	-82.241	-52.2154	96.9649	-113.693	-81.4033	79.8691	-88.4554	-69.9536	96.4025	-104.53	-47.155	117.285	-165.737	-53.2746	88.9164	-188.022	-45.1852	112.965	-171.652	-12.7511	95.2045	
171	1.425	-150.806	16.2481	114.239	-117.612	24.2462	112.003	-84.2956	28.0252	101.4	-61.7266	22.9678	95.4703	-125.975	-5.74698	34.9513	-103.772	-7.03907	16.8622	-70.5993	-8.15562	12.5217	-125.192	-42.6476	33.6137	-96.4892	-46.8044	16.534	-56.9601	-49.3896	20.9132	-107.02	-59.3353	54.6007	-77.6015	-57.3795	64.1012	-82.1338	-38.7311	99.4605	-107.757	-75.4964	81.3459	-82.3234	-58.1035	98.1516	-99.8729	-39.4005	114.483	-160.694	-57.5384	85.0502	-187.768	-49.6677	113.219	-174.63	-14.1607	92.6978	
172	1.43333	-159.537	14.9654	109.455	-128.65	32.9122	106.704	-96.3808	38.0299	93.9716	-69.389	37.1221	87.6224	-135.043	-7.48839	35.0469	-111.556	-5.71134	11.8841	-81.2048	0.459753	7.46687	-126.596	-43.9093	34.5289	-95.6689	-42.8307	13.685	-56.0479	-39.0619	19.5423	-102.972	-54.9915	51.4255	-75.5297	-45.7513	64.2158	-82.4079	-31.4656	95.3077	-101.987	-72.0176	81.7228	-80.8147	-48.1387	96.7605	-103.519	-30.101	115.256	-159.981	-55.9361	83.6941	-183.677	-56.4627	110.398	-178.999	-24.5298	91.0519	
173	1.44167	-167.372	10.1423	103.615	-138.574	30.2291	97.7063	-108.109	46.932	85.4412	-83.9074	42.2428	78.6286	-141.328	-12.4535	30.8893	-117.079	-4.7063	4.99079	-88.5156	-0.984291	1.56691	-128.7	-44.4545	31.4973	-96.374	-41.4486	9.83674	-60.5906	-29.391	13.7333	-107.087	-52.2913	51.4441	-76.6718	-42.2837	59.2116	-86.0399	-18.2997	87.6877	-99.1919	-64.6125	76.6762	-81.6038	-39.2597	90.9293	-103.962	-24.5935	110.606	-162.21	-58.494	84.224	-180.073	-58.4459	108.905	-182.489	-25.4858	84.7419	
174	1.45	-174.268	8.4915	99.6073	-149.665	29.8807	90.4361	-122.357	51.002	76.7144	-98.0499	45.0172	68.849	-150.664	-12.0545	28.1141	-126.308	-8.18254	2.03675	-96.7984	4.10291	-5.19686	-131.376	-44.9586	28.5274	-98.9425	-40.3412	7.20315	-68.47	-27.7917	8.1552	-104.832	-52.0056	48.977	-81.7881	-30.0702	53.9769	-90.7408	-12.5833	83.347	-97.8749	-59.5093	74.9216	-83.2135	-31.6614	84.102	-106.493	-19.0285	104.064	-158.1	-64.0436	82.6841	-179.564	-63.5331	109.898	-185.761	-31.2089	85.2592	
175	1.45833	-183.123	4.87512	99.0563	-161.185	32.8831	84.8053	-135.651	49.0351	70.1378	-110.259	55.0387	58.9626	-153.663	-18.9385	24.3815	-140.088	-8.63977	-1.51035	-110.866	6.04837	-12.4379	-133.595	-46.9208	25.5186	-106.725	-42.0518	4.4049	-72.6132	-20.3496	1.49741	-107.612	-47.2527	45.6913	-86.0393	-23.4892	48.7133	-94.4624	-5.61712	75.2392	-95.9702	-54.0831	71.9802	-85.2479	-24.9639	80.9438	-110.29	-12.2585	99.1316	-158.787	-62.3287	86.665	-177.485	-63.4143	109.938	-187.84	-36.039	85.6766	
176	1.46667	-186.346	2.38811	92.7269	-170.312	30.3834	79.7401	-148.399	49.3258	63.1605	-124.578	55.842	50.3651	-159.479	-23.9482	22.3799	-142.022	-15.1612	-6.28809	-121.134	1.11919	-17.4765	-136.258	-48.8821	23.723	-113.228	-40.969	0.0582893	-81.0379	-17.0672	-7.81698	-109.192	-46.0724	43.0384	-87.1567	-23.1089	43.239	-101.946	0.176457	71.2344	-99.4637	-47.0501	66.465	-88.0649	-16.4206	78.2528	-113.58	-8.84459	95.3056	-154.639	-65.0386	86.0287	-172.943	-67.022	111.545	-187.861	-40.9437	82.1553	
177	1.475	-193.998	0.07262	91.5038	-178.887	27.6877	74.878	-161.173	46.1454	56.6828	-135.909	52.3014	39.7352	-167.02	-28.2183	17.0551	-152.276	-21.6026	-9.17063	-130.118	-0.117027	-24.0861	-140.828	-51.1744	24.7725	-114.941	-43.4532	-5.22697	-89.532	-21.2087	-12.7836	-113.849	-44.4138	36.3527	-92.5674	-22.2066	35.0682	-105.907	2.48773	63.3929	-99.1848	-47.7514	67.195	-88.782	-14.3444	69.6077	-115.95	-5.88387	89.6613	-150.632	-65.7822	83.01	-167.843	-68.1988	116.563	-187.425	-47.1325	85.9743	
